<svg width="30" height="33" viewBox="0 0 30 33" fill="none" xmlns="http://www.w3.org/2000/svg">
<circle cx="15" cy="16" r="15" fill="#F1F1F1"/>
<path d="M17.688 14.856C17.688 15.528 17.472 16.688 17.04 18.336C16.608 19.968 16.392 21.04 16.392 21.552C16.392 22.048 16.464 22.296 16.608 22.296C16.704 22.296 17.072 22.144 17.712 21.84L18 21.696L18.408 22.536C18.264 22.664 18.072 22.824 17.832 23.016C17.592 23.208 17.144 23.472 16.488 23.808C15.832 24.128 15.224 24.288 14.664 24.288C14.104 24.288 13.664 24.12 13.344 23.784C13.024 23.432 12.864 22.968 12.864 22.392C12.864 21.8 13.064 20.76 13.464 19.272C13.864 17.768 14.064 16.792 14.064 16.344C14.064 15.672 13.856 15.04 13.44 14.448L13.224 14.16L13.248 13.848C14.096 13.608 15.472 13.488 17.376 13.488C17.584 13.728 17.688 14.184 17.688 14.856ZM14.952 10.872C14.632 10.552 14.472 10.128 14.472 9.6C14.472 9.072 14.688 8.608 15.12 8.208C15.568 7.808 16.08 7.608 16.656 7.608C17.232 7.608 17.68 7.768 18 8.088C18.32 8.408 18.48 8.832 18.48 9.36C18.48 9.872 18.248 10.328 17.784 10.728C17.336 11.128 16.832 11.328 16.272 11.328C15.712 11.328 15.272 11.176 14.952 10.872Z" fill="#7D7979"/>
</svg>
