<svg width="142" height="52" viewBox="0 0 142 52" fill="none" xmlns="http://www.w3.org/2000/svg">
<path d="M4.528 17.576L4.504 18.152C4.504 18.248 4.52 18.44 4.552 18.728C4.696 18.904 4.848 18.944 5.008 18.848C5.136 18.768 5.424 18.544 5.872 18.176C6.608 17.072 7.216 15.984 7.696 14.912C8.8 12.4 9.584 10.256 10.048 8.48C10.192 7.952 10.328 7.432 10.456 6.92C10.6 6.408 10.736 5.888 10.864 5.36C11.008 4.816 11.168 4.256 11.344 3.68V3.584C11.616 2.64 12.312 1.904 13.432 1.376C14.504 0.848 15.424 0.768 16.192 1.136C16.56 1.312 16.824 1.616 16.984 2.048C17.144 2.464 17.128 3.032 16.936 3.752C16.568 4.856 16.2 6.016 15.832 7.232C15.464 8.448 15.072 9.672 14.656 10.904C14.24 12.12 13.776 13.312 13.264 14.48C12.752 15.648 12.16 16.72 11.488 17.696C10 19.872 8.24 21.312 6.208 22.016C5.984 22.112 5.792 22.168 5.632 22.184C5.488 22.2 5.272 22.224 4.984 22.256C4.696 22.304 4.328 22.312 3.88 22.28C3.448 22.264 3.024 22.192 2.608 22.064C1.648 21.792 1.056 21.312 0.832 20.624C0.576 19.664 0.48 18.968 0.544 18.536C0.592 18.088 0.68 17.728 0.808 17.456C0.936 17.184 1.096 16.896 1.288 16.592H1.312C1.456 16.32 1.68 16.088 1.984 15.896C2.304 15.704 2.632 15.584 2.968 15.536C3.32 15.472 3.64 15.496 3.928 15.608C4.232 15.72 4.432 15.936 4.528 16.256C4.544 16.432 4.552 16.656 4.552 16.928C4.552 17.2 4.544 17.416 4.528 17.576ZM17.5731 9.464C18.0211 9.032 18.5171 8.784 19.0611 8.72C19.6211 8.64 20.1091 8.696 20.5251 8.888C20.9571 9.08 21.2691 9.392 21.4611 9.824C21.6691 10.24 21.6451 10.72 21.3891 11.264C20.8451 12.064 20.4131 12.928 20.0931 13.856C19.7731 14.784 19.4771 15.72 19.2051 16.664C20.6771 15.736 21.9091 14.352 22.9011 12.512C23.1891 11.968 23.5011 11.416 23.8371 10.856L24.1971 10.184L24.9171 9.032C25.0131 8.728 25.1811 8.536 25.4211 8.456C25.6611 8.36 25.9171 8.312 26.1891 8.312C26.4771 8.312 26.7651 8.32 27.0531 8.336C27.3411 8.336 27.6051 8.256 27.8451 8.096C28.0851 7.936 28.3651 7.88 28.6851 7.928C29.0211 7.96 29.3171 8.064 29.5731 8.24C29.8451 8.416 30.0451 8.632 30.1731 8.888C30.3171 9.128 30.3331 9.368 30.2211 9.608C29.5491 11.048 28.6291 13.728 27.4611 17.648C27.1891 18.528 26.9331 19.264 26.6931 19.856C26.2931 20.352 25.7891 20.688 25.1811 20.864C24.5731 21.04 23.9971 21.088 23.4531 21.008C22.9251 20.944 22.5011 20.76 22.1811 20.456C21.8611 20.168 21.7891 19.8 21.9651 19.352C21.5171 19.72 21.0531 20.056 20.5731 20.36C20.0931 20.664 19.5091 20.864 18.8211 20.96C18.1491 21.056 17.5011 21.024 16.8771 20.864C16.2531 20.72 15.7171 20.432 15.2691 20C14.8371 19.568 14.6051 18.992 14.5731 18.272C14.4771 15.744 15.4771 12.808 17.5731 9.464ZM37.6958 20.576C37.0718 21.088 36.3278 21.472 35.4638 21.728C34.6158 22 33.7598 22.144 32.8958 22.16C32.0318 22.176 31.2238 22.072 30.4718 21.848C29.7198 21.624 29.1278 21.272 28.6958 20.792C28.1838 20.248 28.0078 19.704 28.1678 19.16C28.2478 18.936 28.3918 18.76 28.5998 18.632C28.7918 18.504 29.0318 18.472 29.3198 18.536C29.5118 18.552 29.6478 18.504 29.7278 18.392C29.8238 18.264 29.9038 18.128 29.9678 17.984C30.0318 17.824 30.1038 17.68 30.1838 17.552C30.2638 17.408 30.3918 17.336 30.5678 17.336C33.3838 17.416 34.8478 17.168 34.9598 16.592C34.7678 16.416 34.5278 16.264 34.2398 16.136C33.9678 16.008 33.6878 15.88 33.3998 15.752C32.6958 15.432 32.2238 15.08 31.9838 14.696C31.6798 14.536 31.4478 14.152 31.2878 13.544C31.2078 13.272 31.1678 12.992 31.1678 12.704C31.1678 12.416 31.2158 12.152 31.3118 11.912C31.2638 11.288 31.6478 10.6 32.4638 9.848C32.6878 9.64 32.9678 9.416 33.3038 9.176C33.6398 8.936 34.1438 8.704 34.8158 8.48C35.4878 8.256 36.1518 8.096 36.8078 8C37.4798 7.888 38.0798 7.848 38.6078 7.88C39.1518 7.912 39.5358 8.04 39.7598 8.264C39.9998 8.488 40.1838 8.768 40.3118 9.104C40.4558 9.44 40.5038 9.768 40.4558 10.088C40.3278 10.808 39.7358 11.304 38.6798 11.576C37.3518 11.768 36.7118 11.944 36.7598 12.104C36.7598 12.136 36.7038 12.176 36.5918 12.224C37.8238 13.072 38.6798 13.904 39.1598 14.72C39.8158 15.84 39.9118 17.088 39.4478 18.464C39.5278 18.912 39.1278 19.472 38.2478 20.144C38.0398 20.304 37.8558 20.448 37.6958 20.576ZM47.6524 2.048L47.6764 1.952L47.8924 1.736C48.0684 1.32 48.2604 1.072 48.4684 0.991999C48.5804 0.959999 48.7244 0.919999 48.9004 0.871999C49.0764 0.823999 49.3084 0.704 49.5964 0.511999C49.7084 0.287999 49.9404 0.191999 50.2924 0.223999C50.6444 0.239999 50.9884 0.351999 51.3244 0.559999C51.6764 0.751999 51.9564 1.024 52.1644 1.376C52.3884 1.728 52.4444 2.096 52.3324 2.48C52.2204 2.848 52.1244 3.128 52.0444 3.32C51.9804 3.496 51.9084 3.664 51.8284 3.824C51.7644 3.984 51.6764 4.168 51.5644 4.376C51.4684 4.568 51.3404 4.832 51.1804 5.168L50.3884 6.824C50.3084 7.032 50.2364 7.152 50.1724 7.184C50.1244 7.216 50.0764 7.272 50.0284 7.352C50.1724 7.32 50.2924 7.296 50.3884 7.28C50.4844 7.264 50.5804 7.248 50.6764 7.232C50.9004 7.2 51.1564 7.168 51.4444 7.136C51.6204 7.168 51.7724 7.184 51.9004 7.184H52.2364C52.4284 7.184 52.6604 7.24 52.9324 7.352C53.2044 7.448 53.3804 7.624 53.4604 7.88C53.5404 8.136 53.5484 8.4 53.4844 8.672C53.4204 8.928 53.2924 9.168 53.1004 9.392C52.9084 9.616 52.6604 9.736 52.3564 9.752C50.9644 10.136 49.9724 10.344 49.3804 10.376L49.2364 10.544V10.568C49.0764 10.952 48.9004 11.44 48.7084 12.032C48.5324 12.608 48.3324 13.24 48.1084 13.928C47.9004 14.6 47.6844 15.304 47.4604 16.04C47.2364 16.76 47.0044 17.456 46.7644 18.128C45.9964 20.384 45.4364 21.608 45.0844 21.8C44.9564 21.864 44.8204 21.904 44.6764 21.92C44.5484 21.952 44.4764 21.976 44.4604 21.992C43.9004 21.96 43.4364 21.848 43.0684 21.656C42.7004 21.464 42.4524 21.28 42.3244 21.104C42.1964 20.928 42.1644 20.728 42.2284 20.504C42.5324 17.72 43.1404 14.672 44.0524 11.36C43.7324 11.36 43.5084 11.392 43.3804 11.456C43.1404 11.584 42.8524 11.656 42.5164 11.672H42.4924C42.2364 11.656 42.0044 11.536 41.7964 11.312C41.5884 11.088 41.4604 10.832 41.4124 10.544C41.3644 10.256 41.4124 9.96 41.5564 9.656C41.7004 9.352 41.9884 9.112 42.4204 8.936C42.9324 8.792 43.3084 8.672 43.5484 8.576C44.0124 8.384 44.3964 8.248 44.7004 8.168C45.0204 8.088 45.1964 8.04 45.2284 8.024C45.2764 7.992 45.3084 7.968 45.3244 7.952C45.3724 7.92 45.4924 7.904 45.6844 7.904C45.7804 7.44 45.8764 6.968 45.9724 6.488C46.0684 6.008 46.1884 5.52 46.3324 5.024C46.6524 3.872 47.0924 2.88 47.6524 2.048ZM20.5371 43.072L19.9371 43.624C19.6171 43.848 19.3051 43.984 19.0011 44.032L19.0251 44.056L18.9051 44.152C17.7691 44.248 16.9291 44 16.3851 43.408C15.8251 42.784 15.7051 41.968 16.0251 40.96C16.7291 36.976 17.7131 33.28 18.9771 29.872C19.8251 27.568 20.6411 26.024 21.4251 25.24C21.8411 24.84 22.2251 24.72 22.5771 24.88C22.6731 24.496 22.8411 24.2 23.0811 23.992C23.3211 23.768 23.5851 23.64 23.8731 23.608C24.1611 23.56 24.4411 23.608 24.7131 23.752C24.9851 23.88 25.1931 24.12 25.3371 24.472C25.4971 24.824 25.5611 25.168 25.5291 25.504C25.5131 25.824 25.4411 26.144 25.3131 26.464C25.2011 26.768 25.0571 27.072 24.8811 27.376C24.7211 27.68 24.5691 27.984 24.4251 28.288C23.4011 30.752 22.6731 32.576 22.2411 33.76L22.4571 33.616C23.5131 32.912 24.6411 32.6 25.8411 32.68C26.3691 32.728 26.8411 32.872 27.2571 33.112C27.6891 33.336 28.0011 33.68 28.1931 34.144C28.4011 34.608 28.4811 35.208 28.4331 35.944C28.4011 36.664 28.2651 37.416 28.0251 38.2C27.7851 38.968 27.4571 39.72 27.0411 40.456C26.6411 41.192 26.1931 41.832 25.6971 42.376C24.5771 43.608 23.4971 44.072 22.4571 43.768C22.0091 43.832 21.4891 43.624 20.8971 43.144C20.7691 43.032 20.6491 42.944 20.5371 42.88V43.072ZM21.1851 41.344C21.4251 41.072 21.8331 40.56 22.4091 39.808C23.0011 39.056 23.3931 38.472 23.5851 38.056C23.7931 37.624 23.7451 37.224 23.4411 36.856C23.1371 36.472 22.7531 36.76 22.2891 37.72C21.5531 39.256 21.1851 40.464 21.1851 41.344ZM37.0557 39.448C36.7517 39.592 36.4557 39.704 36.1677 39.784C35.8797 39.864 35.5437 39.944 35.1597 40.024C34.1517 40.232 33.4237 40.352 32.9757 40.384C33.0237 40.544 33.2637 40.736 33.6957 40.96C33.9837 41.008 34.2957 40.968 34.6317 40.84C34.9837 40.696 35.3437 40.568 35.7117 40.456C36.0957 40.328 36.4637 40.256 36.8157 40.24C37.1837 40.224 37.5277 40.36 37.8477 40.648C37.9757 40.936 38.0797 41.104 38.1597 41.152C38.2397 41.2 38.3117 41.224 38.3757 41.224C38.4397 41.224 38.5117 41.248 38.5917 41.296C38.6717 41.344 38.7837 41.528 38.9277 41.848C39.0877 42.168 39.0477 42.472 38.8077 42.76C38.5837 43.048 38.2317 43.296 37.7517 43.504C37.2717 43.712 36.7117 43.88 36.0717 44.008C35.4317 44.136 34.7917 44.224 34.1517 44.272C32.7117 44.384 31.6157 44.272 30.8637 43.936C29.7757 43.568 29.0717 42.84 28.7517 41.752C28.3357 40.312 28.5677 38.632 29.4477 36.712C29.8477 35.816 30.4797 34.856 31.3437 33.832C32.0957 32.936 32.9357 32.288 33.8637 31.888C34.9357 31.424 36.0557 31.208 37.2237 31.24C38.4717 31.272 39.3357 31.816 39.8157 32.872C40.0557 33.432 40.1037 34.216 39.9597 35.224C39.7037 36.536 39.3677 37.464 38.9517 38.008C38.5357 38.536 37.9037 39.016 37.0557 39.448ZM35.6637 35.656C34.8157 35.48 34.1517 35.96 33.6717 37.096C33.5277 37.4 33.4157 37.72 33.3357 38.056C33.8797 38.12 34.4557 37.816 35.0637 37.144C35.2877 36.872 35.4557 36.6 35.5677 36.328C35.6797 36.04 35.7117 35.816 35.6637 35.656ZM56.0864 36.856C55.6544 38.104 55.2144 39.304 54.7664 40.456C54.3184 41.608 53.9424 42.48 53.6384 43.072C53.3504 43.68 53.0944 44.096 52.8704 44.32C52.6464 44.544 52.4144 44.696 52.1744 44.776C51.9504 44.856 51.7184 44.888 51.4784 44.872C51.2544 44.856 51.0224 44.84 50.7824 44.824C49.4384 44.616 49.0224 43.648 49.5344 41.92C49.8704 40.544 50.1424 39.424 50.3504 38.56C50.5584 37.68 50.7264 36.96 50.8544 36.4C50.9984 35.824 51.1184 35.352 51.2144 34.984C51.3104 34.6 51.4144 34.224 51.5264 33.856C51.6384 33.488 51.7744 33.072 51.9344 32.608C52.1104 32.144 52.3344 31.528 52.6064 30.76C51.9984 30.84 51.4544 30.776 50.9744 30.568C50.2704 30.264 49.9824 29.608 50.1104 28.6C50.1744 28.136 50.4224 27.704 50.8544 27.304C51.0784 27.096 51.3424 26.872 51.6464 26.632C52.2704 26.136 53.5104 25.608 55.3664 25.048C57.2864 24.472 58.9344 24.2 60.3104 24.232C60.6784 24.168 61.0544 24.216 61.4384 24.376C61.8384 24.52 62.1584 24.72 62.3984 24.976C62.6384 25.232 62.7584 25.512 62.7584 25.816C62.7744 26.12 62.5824 26.392 62.1824 26.632C61.9904 26.76 61.8544 26.976 61.7744 27.28C61.6944 27.568 61.6064 27.88 61.5104 28.216C61.4144 28.536 61.2704 28.832 61.0784 29.104C60.9024 29.376 60.6144 29.536 60.2144 29.584C60.0064 29.696 59.7104 29.776 59.3264 29.824C58.9584 29.872 58.7104 29.912 58.5824 29.944C58.4704 29.96 58.4064 30 58.3904 30.064C58.1024 30.912 57.7584 31.944 57.3584 33.16C56.9584 34.36 56.5344 35.592 56.0864 36.856ZM52.8464 30.496C52.8144 30.496 52.7984 30.504 52.7984 30.52C52.7984 30.52 52.8144 30.52 52.8464 30.52V30.496ZM62.2773 33.064C62.5013 32.488 62.8133 32.056 63.2133 31.768C63.6293 31.464 64.0213 31.28 64.3893 31.216C64.7733 31.136 65.0853 31.176 65.3253 31.336C65.5813 31.496 65.6693 31.744 65.5893 32.08C65.8933 31.776 66.3333 31.496 66.9093 31.24C67.4853 30.984 67.9413 30.808 68.2773 30.712C68.6133 30.616 68.9013 30.568 69.1413 30.568C69.6693 30.6 69.8213 30.888 69.5973 31.432C69.8693 31.48 70.0693 31.656 70.1973 31.96C70.3253 32.264 70.3413 32.6 70.2453 32.968C70.1493 33.336 69.9333 33.696 69.5973 34.048C69.2613 34.4 68.8053 34.64 68.2293 34.768C67.6693 34.896 67.1973 35.192 66.8133 35.656C66.4453 36.104 66.1173 36.664 65.8293 37.336C65.3493 38.472 64.9173 40.08 64.5333 42.16C64.4053 42.912 63.8853 43.544 62.9733 44.056C62.1093 44.552 61.3173 44.696 60.5973 44.488C59.7812 44.264 59.4212 43.664 59.5172 42.688C59.5492 42 59.7572 41.088 60.1413 39.952C60.5253 38.8 60.8213 37.936 61.0293 37.36C61.2373 36.768 61.3813 36.32 61.4613 36.016L62.2773 33.064ZM80.3123 32.704L80.4083 32.728C80.4403 32.728 80.4563 32.736 80.4563 32.752C80.8723 32.592 81.2163 32.712 81.4883 33.112C81.6643 33.384 81.8003 33.8 81.8963 34.36C81.9283 35.128 81.8483 36.192 81.6563 37.552C81.2883 40.304 81.0883 41.944 81.0563 42.472C81.0883 43.032 80.7443 43.416 80.0243 43.624C79.4003 43.816 78.7763 43.808 78.1523 43.6C77.4963 43.376 77.2243 43.032 77.3363 42.568C77.2083 42.808 77.0803 42.976 76.9523 43.072C76.8243 43.184 76.5683 43.328 76.1843 43.504C75.8163 43.696 75.2883 43.848 74.6003 43.96C73.9123 44.088 73.2243 44.12 72.5363 44.056C71.8483 44.008 71.2163 43.84 70.6403 43.552C70.0803 43.28 69.7043 42.848 69.5123 42.256C69.1443 41.104 69.1923 39.64 69.6563 37.864C69.9763 36.696 70.5523 35.664 71.3843 34.768C72.3443 33.744 73.4323 32.896 74.6483 32.224C75.5603 31.728 76.4403 31.432 77.2883 31.336C77.5763 31.304 77.8243 31.312 78.0323 31.36C78.2563 31.408 78.4883 31.456 78.7283 31.504C78.9843 31.552 79.2243 31.624 79.4483 31.72C80.0243 31.96 80.3123 32.288 80.3123 32.704ZM75.8723 39.064C75.9843 38.84 76.0723 38.56 76.1363 38.224C76.2163 37.888 76.3203 37.52 76.4483 37.12C75.1523 37.648 74.1603 38.296 73.4723 39.064C72.7203 39.912 72.7683 40.496 73.6163 40.816C74.3523 41.008 74.8883 40.888 75.2243 40.456C75.3683 40.264 75.4963 40.024 75.6083 39.736C75.7203 39.448 75.8563 39.152 76.0163 38.848C75.9683 38.928 75.9203 39 75.8723 39.064ZM85.3555 32.608C85.5635 32.08 86.0595 31.72 86.8435 31.528C87.5795 31.336 88.2675 31.36 88.9075 31.6C89.5635 31.856 89.8595 32.272 89.7955 32.848C89.6195 33.408 89.3955 34.096 89.1235 34.912C88.8675 35.712 88.6195 36.536 88.3795 37.384C87.7395 39.56 87.3715 41.096 87.2755 41.992C87.0355 43.432 86.6355 44.208 86.0755 44.32C85.9155 44.352 85.7635 44.376 85.6195 44.392C85.2675 44.408 85.0435 44.504 84.9475 44.68C84.8515 44.856 84.6915 44.984 84.4675 45.064C84.2435 45.16 83.9955 45.2 83.7235 45.184C83.4675 45.184 83.2035 45.12 82.9315 44.992C82.6595 44.88 82.4275 44.712 82.2355 44.488C81.7875 43.944 81.6995 43.216 81.9715 42.304C82.2275 40.56 82.8755 38.344 83.9155 35.656C84.4115 34.328 84.8915 33.312 85.3555 32.608ZM89.8915 29.008C89.1075 29.168 88.4675 29.12 87.9715 28.864C87.4915 28.608 87.2115 28.304 87.1315 27.952C87.0515 27.584 87.1635 27.208 87.4675 26.824C87.8195 26.344 88.3475 26.032 89.0515 25.888C89.3715 25.856 89.6035 25.84 89.7475 25.84C89.8915 25.84 90.0675 25.872 90.2755 25.936C90.8035 25.984 91.1475 26.216 91.3075 26.632C91.5315 26.984 91.5475 27.384 91.3555 27.832C91.1795 28.28 90.6915 28.672 89.8915 29.008ZM93.9064 32.608C94.9784 32.176 95.6984 32.168 96.0664 32.584C96.2584 32.808 96.3544 33.12 96.3544 33.52V33.64C96.9464 32.952 97.9784 32.376 99.4504 31.912C101.002 31.432 102.282 31.296 103.29 31.504C104.602 31.776 105.338 32.632 105.498 34.072C105.626 35.288 105.346 36.832 104.658 38.704C104.434 39.184 104.258 39.576 104.13 39.88C104.018 40.168 103.914 40.432 103.818 40.672C103.61 41.12 103.282 41.656 102.834 42.28C102.578 42.76 102.178 43.128 101.634 43.384C101.106 43.64 100.578 43.784 100.05 43.816C99.5384 43.864 99.1144 43.784 98.7784 43.576C98.4424 43.384 98.3464 43.072 98.4904 42.64C98.8584 41.648 99.1624 40.744 99.4024 39.928C99.6424 39.112 99.8904 38.416 100.146 37.84C100.386 37.024 100.418 36.512 100.242 36.304C100.098 36.144 99.8504 36.168 99.4984 36.376C99.1944 36.568 98.9784 36.792 98.8504 37.048C98.5624 37.256 98.0184 38.088 97.2184 39.544C96.9944 39.944 96.7704 40.344 96.5464 40.744C96.3384 41.128 96.1384 41.488 95.9464 41.824C95.7704 42.16 95.6104 42.44 95.4664 42.664C95.3384 42.888 95.2184 43.032 95.1064 43.096C95.0104 43.176 94.9224 43.224 94.8424 43.24C94.7784 43.272 94.7224 43.304 94.6744 43.336C94.6264 43.368 94.5864 43.472 94.5544 43.648C94.4904 44.016 94.1064 44.288 93.4024 44.464C92.2664 44.752 91.2424 44.704 90.3304 44.32C90.0264 44.192 89.7864 44.016 89.6104 43.792C89.2424 43.056 89.8744 40.552 91.5064 36.28C92.0824 34.776 92.4584 33.88 92.6344 33.592C93.0344 32.984 93.2904 32.64 93.4024 32.56C93.5304 32.48 93.6984 32.496 93.9064 32.608ZM108.723 32.608C108.931 32.08 109.427 31.72 110.211 31.528C110.947 31.336 111.635 31.36 112.275 31.6C112.931 31.856 113.227 32.272 113.163 32.848C112.987 33.408 112.763 34.096 112.491 34.912C112.235 35.712 111.987 36.536 111.747 37.384C111.107 39.56 110.739 41.096 110.643 41.992C110.403 43.432 110.003 44.208 109.443 44.32C109.283 44.352 109.131 44.376 108.987 44.392C108.635 44.408 108.411 44.504 108.315 44.68C108.219 44.856 108.059 44.984 107.835 45.064C107.611 45.16 107.363 45.2 107.091 45.184C106.835 45.184 106.571 45.12 106.299 44.992C106.027 44.88 105.795 44.712 105.603 44.488C105.155 43.944 105.067 43.216 105.339 42.304C105.595 40.56 106.243 38.344 107.283 35.656C107.779 34.328 108.259 33.312 108.723 32.608ZM113.259 29.008C112.475 29.168 111.835 29.12 111.339 28.864C110.859 28.608 110.579 28.304 110.499 27.952C110.419 27.584 110.531 27.208 110.835 26.824C111.187 26.344 111.715 26.032 112.419 25.888C112.739 25.856 112.971 25.84 113.115 25.84C113.259 25.84 113.435 25.872 113.643 25.936C114.171 25.984 114.515 26.216 114.675 26.632C114.899 26.984 114.915 27.384 114.723 27.832C114.547 28.28 114.059 28.672 113.259 29.008ZM117.274 32.608C118.346 32.176 119.066 32.168 119.434 32.584C119.626 32.808 119.722 33.12 119.722 33.52V33.64C120.314 32.952 121.346 32.376 122.818 31.912C124.37 31.432 125.65 31.296 126.658 31.504C127.97 31.776 128.706 32.632 128.866 34.072C128.994 35.288 128.714 36.832 128.026 38.704C127.802 39.184 127.626 39.576 127.498 39.88C127.386 40.168 127.282 40.432 127.186 40.672C126.978 41.12 126.65 41.656 126.202 42.28C125.946 42.76 125.546 43.128 125.002 43.384C124.474 43.64 123.946 43.784 123.418 43.816C122.906 43.864 122.482 43.784 122.146 43.576C121.81 43.384 121.714 43.072 121.858 42.64C122.226 41.648 122.53 40.744 122.77 39.928C123.01 39.112 123.258 38.416 123.514 37.84C123.754 37.024 123.786 36.512 123.61 36.304C123.466 36.144 123.218 36.168 122.866 36.376C122.562 36.568 122.346 36.792 122.218 37.048C121.93 37.256 121.386 38.088 120.586 39.544C120.362 39.944 120.138 40.344 119.914 40.744C119.706 41.128 119.506 41.488 119.314 41.824C119.138 42.16 118.978 42.44 118.834 42.664C118.706 42.888 118.586 43.032 118.474 43.096C118.378 43.176 118.29 43.224 118.21 43.24C118.146 43.272 118.09 43.304 118.042 43.336C117.994 43.368 117.954 43.472 117.922 43.648C117.858 44.016 117.474 44.288 116.77 44.464C115.634 44.752 114.61 44.704 113.698 44.32C113.394 44.192 113.154 44.016 112.978 43.792C112.61 43.056 113.242 40.552 114.874 36.28C115.45 34.776 115.826 33.88 116.002 33.592C116.402 32.984 116.658 32.64 116.77 32.56C116.898 32.48 117.066 32.496 117.274 32.608ZM139.002 33.424C139.274 32.928 139.634 32.68 140.082 32.68C140.77 33.064 141.202 33.688 141.378 34.552C141.554 35.416 141.362 36.192 140.802 36.88C140.786 36.896 140.794 37.032 140.826 37.288C141.114 38.888 141.01 40.552 140.514 42.28C140.338 42.856 140.13 43.392 139.89 43.888C139.666 44.384 139.378 45.008 139.026 45.76C138.69 46.512 138.21 47.256 137.586 47.992C136.962 48.728 136.258 49.312 135.474 49.744C133.826 50.672 131.986 50.872 129.954 50.344C129.218 50.056 128.706 49.72 128.418 49.336C128.05 48.872 127.922 48.376 128.034 47.848C128.146 47.192 128.53 46.832 129.186 46.768C129.506 46.736 129.906 46.856 130.386 47.128C130.93 47.24 131.37 47.232 131.706 47.104C132.042 46.976 132.306 46.856 132.498 46.744C132.706 46.648 132.962 46.52 133.266 46.36C133.794 46.088 134.394 45.464 135.066 44.488C135.434 43.976 135.802 43.288 136.17 42.424C135.578 43.176 134.634 43.544 133.338 43.528C132.97 43.512 132.554 43.496 132.09 43.48C131.642 43.464 131.234 43.312 130.866 43.024C130.498 42.736 130.202 42.36 129.978 41.896C129.754 41.432 129.602 40.904 129.522 40.312C129.458 39.704 129.458 39.088 129.522 38.464C129.778 36.288 130.69 34.568 132.258 33.304C133.33 32.424 134.482 31.952 135.714 31.888C136.306 31.856 136.866 31.92 137.394 32.08C138.034 32.32 138.57 32.768 139.002 33.424ZM136.074 38.872C136.074 38.824 136.082 38.784 136.098 38.752C136.018 38.72 135.938 38.696 135.858 38.68C135.778 38.648 135.634 38.6 135.426 38.536C135.218 38.472 134.938 38.512 134.586 38.656C134.234 38.784 133.922 38.968 133.65 39.208C133.394 39.432 133.186 39.672 133.026 39.928C132.882 40.184 132.858 40.4 132.954 40.576C133.066 40.752 133.258 40.824 133.53 40.792C133.802 40.744 134.098 40.624 134.418 40.432C135.122 40 135.674 39.48 136.074 38.872Z" fill="black"/>
</svg>
